<?xml version="1.0" standalone="no"?>
<!DOCTYPE svg PUBLIC "-//W3C//DTD SVG 20010904//EN"
 "http://www.w3.org/TR/2001/REC-SVG-20010904/DTD/svg10.dtd">
<svg version="1.0" xmlns="http://www.w3.org/2000/svg"
 width="110.000000pt" height="110.000000pt" viewBox="0 0 110.000000 110.000000"
 preserveAspectRatio="xMidYMid meet">
<metadata>
Created by potrace 1.14, written by Peter Selinger 2001-2017
</metadata>
<g transform="translate(0.000000,110.000000) scale(0.100000,-0.100000)"
fill="#000000" stroke="none">
<path d="M455 1080 c-16 -10 -48 -28 -70 -40 -22 -13 -51 -30 -65 -37 -14 -8
-38 -23 -55 -33 -16 -10 -54 -31 -84 -47 -29 -15 -71 -47 -92 -71 l-38 -43 0
-252 c-1 -232 0 -254 18 -283 21 -34 63 -69 124 -103 64 -36 99 -56 192 -112
87 -52 92 -53 165 -54 72 0 78 2 153 47 43 27 79 48 81 48 2 0 34 18 70 40 36
22 69 40 72 40 14 0 74 52 101 87 l27 35 1 240 c1 132 -3 242 -7 244 -5 3 -6
9 -3 14 8 13 -76 97 -125 123 -67 36 -110 61 -181 104 -106 64 -134 74 -197
72 -31 -1 -70 -10 -87 -19z m140 -86 c11 -4 59 -31 106 -59 47 -29 92 -55 100
-58 8 -4 32 -18 54 -32 22 -14 47 -28 55 -32 8 -4 23 -16 32 -28 15 -17 17
-48 17 -237 l0 -217 -35 -30 c-19 -17 -49 -38 -67 -46 -18 -8 -45 -23 -62 -34
-73 -45 -102 -61 -124 -71 -13 -6 -37 -20 -53 -32 -17 -11 -44 -22 -62 -23
-32 -1 -44 4 -156 71 -36 21 -67 39 -70 39 -3 0 -23 12 -45 26 -22 14 -53 33
-70 42 -16 8 -39 26 -51 39 -19 22 -20 34 -19 233 1 116 4 219 8 231 4 12 17
26 30 32 12 6 40 23 62 37 22 13 49 29 60 35 11 5 43 23 70 39 160 95 166 97
220 75z"/>
<path d="M288 722 c-23 -27 -17 -61 16 -89 17 -14 46 -39 64 -54 l33 -29 -33
-29 c-18 -15 -46 -39 -62 -53 -31 -26 -42 -71 -22 -88 38 -31 88 -3 223 127
48 45 40 59 -108 180 -60 49 -92 59 -111 35z"/>
<path d="M551 444 l-26 -22 21 -29 c21 -28 22 -28 134 -28 121 0 141 6 145 48
5 43 -17 51 -138 52 -100 1 -113 -1 -136 -21z"/>
</g>
</svg>
